<svg width="43" height="24" viewBox="0 0 43 24" fill="none" xmlns="http://www.w3.org/2000/svg">
<path d="M5 12H7M17 12H19M11 12H13" stroke="#878787" stroke-width="2" stroke-linecap="round" stroke-linejoin="round"/>
<g clip-path="url(#clip0_262_115)">
<path d="M36.3674 12.707C36.5548 12.5195 36.6602 12.2652 36.6602 12C36.6602 11.7349 36.5548 11.4805 36.3674 11.293L32.3196 6.86962C32.2273 6.77411 32.117 6.69793 31.995 6.64552C31.873 6.59311 31.7417 6.56552 31.609 6.56437C31.4762 6.56321 31.3445 6.58852 31.2216 6.6388C31.0987 6.68908 30.9871 6.76333 30.8932 6.85722C30.7993 6.95112 30.725 7.06277 30.6747 7.18566C30.6245 7.30856 30.5992 7.44024 30.6003 7.57302C30.6015 7.7058 30.6291 7.83702 30.6815 7.95902C30.7339 8.08103 30.8101 8.19137 30.9056 8.28362L33.2464 11L23.5034 11C23.2382 11 22.9838 11.1054 22.7963 11.2929C22.6088 11.4804 22.5034 11.7348 22.5034 12C22.5034 12.2652 22.6088 12.5196 22.7963 12.7071C22.9838 12.8947 23.2382 13 23.5034 13L33.2464 13L31.0788 16.119C30.8966 16.3076 30.7958 16.5602 30.7981 16.8224C30.8004 17.0846 30.9056 17.3354 31.091 17.5208C31.2764 17.7062 31.5272 17.8114 31.7894 17.8137C32.0516 17.8159 32.3042 17.7152 32.4928 17.533L36.3674 12.707Z" fill="#878787"/>
</g>
<defs>
<clipPath id="clip0_262_115">
<rect width="24" height="24" fill="white" transform="translate(43) rotate(90)"/>
</clipPath>
</defs>
</svg>
