<svg width="42" height="42" viewBox="0 0 42 42" fill="none" xmlns="http://www.w3.org/2000/svg">
<path d="M29.75 17.5C32.6495 17.5 35 15.1495 35 12.25C35 9.35051 32.6495 7 29.75 7C26.8505 7 24.5 9.35051 24.5 12.25C24.5 15.1495 26.8505 17.5 29.75 17.5Z" stroke="black" stroke-width="1.3" stroke-linecap="round" stroke-linejoin="round"/>
<path d="M12.25 35C15.1495 35 17.5 32.6495 17.5 29.75C17.5 26.8505 15.1495 24.5 12.25 24.5C9.35051 24.5 7 26.8505 7 29.75C7 32.6495 9.35051 35 12.25 35Z" stroke="black" stroke-width="1.3" stroke-linecap="round" stroke-linejoin="round"/>
<path d="M24.5 24.5H35V33.25C35 33.7141 34.8156 34.1592 34.4874 34.4874C34.1592 34.8156 33.7141 35 33.25 35H26.25C25.7859 35 25.3408 34.8156 25.0126 34.4874C24.6844 34.1592 24.5 33.7141 24.5 33.25V24.5ZM7 7H17.5V15.75C17.5 16.2141 17.3156 16.6592 16.9874 16.9874C16.6592 17.3156 16.2141 17.5 15.75 17.5H8.75C8.28587 17.5 7.84075 17.3156 7.51256 16.9874C7.18437 16.6592 7 16.2141 7 15.75V7Z" stroke="black" stroke-width="1.3" stroke-linecap="round" stroke-linejoin="round"/>
</svg>
