<svg width="42" height="42" viewBox="0 0 42 42" fill="none" xmlns="http://www.w3.org/2000/svg">
<path d="M26.25 3.28125C24.2475 3.28078 22.2744 3.76262 20.4975 4.68599C18.7207 5.60936 17.1923 6.94711 16.0418 8.58606C14.8913 10.225 14.1524 12.117 13.8878 14.1019C13.6231 16.0868 13.8403 18.1062 14.5212 19.9894L4.7857 29.7232C4.72478 29.7842 4.67647 29.8566 4.64354 29.9363C4.6106 30.0159 4.59368 30.1013 4.59375 30.1875V36.75C4.59375 36.924 4.66289 37.091 4.78596 37.214C4.90903 37.3371 5.07595 37.4062 5.25 37.4062H11.8125C11.9865 37.4062 12.1535 37.3371 12.2765 37.214C12.3996 37.091 12.4688 36.924 12.4688 36.75V33.4688H15.75C15.924 33.4688 16.091 33.3996 16.214 33.2765C16.3371 33.1535 16.4062 32.9865 16.4062 32.8125V29.5312H19.6875C19.7737 29.5313 19.8591 29.5144 19.9387 29.4815C20.0184 29.4485 20.0908 29.4002 20.1518 29.3393L22.0106 27.4788C23.7216 28.0961 25.5469 28.3315 27.3585 28.1687C29.1701 28.0058 30.9241 27.4485 32.4975 26.536C34.071 25.6234 35.4257 24.3777 36.4667 22.8861C37.5077 21.3946 38.2098 19.6933 38.5237 17.9017C38.8375 16.1101 38.7556 14.2715 38.2837 12.5149C37.8118 10.7583 36.9613 9.12619 35.7918 7.73309C34.6223 6.33999 33.1622 5.21962 31.5139 4.45058C29.8655 3.68153 28.0689 3.28242 26.25 3.28125ZM26.25 26.9062C24.8333 26.909 23.4293 26.64 22.114 26.1138C21.9928 26.0601 21.8582 26.0444 21.7278 26.0687C21.5975 26.093 21.4776 26.1562 21.3839 26.25L19.4152 28.2188H15.75C15.576 28.2188 15.409 28.2879 15.286 28.411C15.1629 28.534 15.0938 28.701 15.0938 28.875V32.1562H11.8125C11.6385 32.1562 11.4715 32.2254 11.3485 32.3485C11.2254 32.4715 11.1562 32.6385 11.1562 32.8125V36.0938H5.90625V30.4598L15.75 20.6161C15.8438 20.5224 15.907 20.4025 15.9313 20.2722C15.9556 20.1418 15.9399 20.0072 15.8862 19.886C15.0012 17.669 14.8506 15.2265 15.4567 12.9176C16.0628 10.6087 17.3934 8.55502 19.2532 7.05845C21.113 5.56187 23.4037 4.70129 25.7889 4.60318C28.174 4.50506 30.5277 5.17459 32.5041 6.51336C34.4805 7.85213 35.9754 9.78955 36.769 12.0409C37.5627 14.2923 37.6133 16.7388 36.9133 19.021C36.2134 21.3033 34.7999 23.3008 32.8805 24.7201C30.9612 26.1395 28.6371 26.9057 26.25 26.9062ZM30.8438 12.4688C30.8438 12.7283 30.7668 12.9821 30.6226 13.1979C30.4783 13.4138 30.2733 13.582 30.0335 13.6813C29.7937 13.7807 29.5298 13.8067 29.2752 13.756C29.0206 13.7054 28.7867 13.5804 28.6032 13.3968C28.4196 13.2133 28.2946 12.9794 28.244 12.7248C28.1933 12.4702 28.2193 12.2063 28.3187 11.9665C28.418 11.7267 28.5862 11.5217 28.8021 11.3774C29.0179 11.2332 29.2717 11.1563 29.5312 11.1563C29.8793 11.1563 30.2132 11.2945 30.4593 11.5407C30.7055 11.7868 30.8438 12.1207 30.8438 12.4688Z" fill="black"/>
</svg>
