<svg width="42" height="42" viewBox="0 0 42 42" fill="none" xmlns="http://www.w3.org/2000/svg">
<path d="M24.2816 13.125C24.2816 12.951 24.3508 12.784 24.4738 12.661C24.5969 12.5379 24.7638 12.4688 24.9379 12.4688H40.6879C40.8619 12.4688 41.0288 12.5379 41.1519 12.661C41.275 12.784 41.3441 12.951 41.3441 13.125C41.3441 13.2991 41.275 13.466 41.1519 13.5891C41.0288 13.7121 40.8619 13.7813 40.6879 13.7813H24.9379C24.7638 13.7813 24.5969 13.7121 24.4738 13.5891C24.3508 13.466 24.2816 13.2991 24.2816 13.125ZM40.6879 20.3438H24.9379C24.7638 20.3438 24.5969 20.4129 24.4738 20.536C24.3508 20.659 24.2816 20.826 24.2816 21C24.2816 21.1741 24.3508 21.341 24.4738 21.4641C24.5969 21.5871 24.7638 21.6563 24.9379 21.6563H40.6879C40.8619 21.6563 41.0288 21.5871 41.1519 21.4641C41.275 21.341 41.3441 21.1741 41.3441 21C41.3441 20.826 41.275 20.659 41.1519 20.536C41.0288 20.4129 40.8619 20.3438 40.6879 20.3438ZM40.6879 28.2188H28.8754C28.7013 28.2188 28.5344 28.2879 28.4113 28.411C28.2883 28.534 28.2191 28.701 28.2191 28.875C28.2191 29.0491 28.2883 29.216 28.4113 29.3391C28.5344 29.4621 28.7013 29.5313 28.8754 29.5313H40.6879C40.8619 29.5313 41.0288 29.4621 41.1519 29.3391C41.275 29.216 41.3441 29.0491 41.3441 28.875C41.3441 28.701 41.275 28.534 41.1519 28.411C41.0288 28.2879 40.8619 28.2188 40.6879 28.2188ZM24.2603 31.336C24.3037 31.5043 24.2785 31.6831 24.1902 31.8329C24.1019 31.9827 23.9578 32.0913 23.7894 32.1349C23.7359 32.1492 23.6808 32.1563 23.6254 32.1563C23.48 32.1562 23.3387 32.1078 23.2238 32.0187C23.1089 31.9296 23.0268 31.8049 22.9905 31.6641C21.8896 27.3853 17.7405 24.2813 13.1254 24.2813C8.5103 24.2813 4.3628 27.3853 3.2603 31.6641C3.24148 31.7503 3.20545 31.8319 3.15437 31.9039C3.10328 31.9759 3.0382 32.0368 2.96301 32.0831C2.88782 32.1294 2.80407 32.16 2.71678 32.1731C2.62948 32.1862 2.54043 32.1816 2.45496 32.1595C2.36949 32.1374 2.28935 32.0983 2.21934 32.0446C2.14934 31.9908 2.0909 31.9234 2.04754 31.8465C2.00417 31.7696 1.97676 31.6848 1.96695 31.5971C1.95715 31.5093 1.96514 31.4205 1.99046 31.336C2.96171 27.5625 6.02147 24.5864 9.78671 23.461C8.35433 22.7138 7.214 21.5077 6.54819 20.0357C5.88238 18.5638 5.72957 16.911 6.11423 15.3419C6.49889 13.7728 7.39877 12.3781 8.66988 11.381C9.94098 10.3838 11.5098 9.84192 13.1254 9.84192C14.7409 9.84192 16.3098 10.3838 17.5809 11.381C18.852 12.3781 19.7519 13.7728 20.1365 15.3419C20.5212 16.911 20.3684 18.5638 19.7026 20.0357C19.0368 21.5077 17.8964 22.7138 16.4641 23.461C20.2293 24.5864 23.2973 27.5625 24.2603 31.336ZM13.1254 22.9688C14.2935 22.9688 15.4354 22.6224 16.4067 21.9734C17.378 21.3244 18.135 20.402 18.582 19.3227C19.0291 18.2435 19.146 17.056 18.9181 15.9103C18.6902 14.7646 18.1277 13.7122 17.3017 12.8862C16.4757 12.0602 15.4233 11.4976 14.2776 11.2698C13.1319 11.0419 11.9444 11.1588 10.8652 11.6059C9.78593 12.0529 8.8635 12.8099 8.21451 13.7812C7.56552 14.7525 7.21913 15.8944 7.21913 17.0625C7.21913 18.6289 7.84139 20.1312 8.94903 21.2389C10.0567 22.3465 11.5589 22.9688 13.1254 22.9688Z" fill="black"/>
</svg>
